<svg t="1619859390512"  viewBox="0 0 1024 1024" version="1.1" xmlns="http://www.w3.org/2000/svg" p-id="4496" width="200" height="200"><path d="M838.08 525.12a1166.4 1166.4 0 0 0-192-45.12L448 128a192 192 0 0 0-137.6-77.44l-24.64-2.24a32 32 0 0 0-32 43.84l128 343.36c-55.68-9.92-102.4-18.88-143.36-23.04l-38.72-85.44a110.72 110.72 0 0 0-78.72-64l-41.6-8.96a32 32 0 0 0-32 39.36l38.72 160a130.88 130.88 0 0 0 70.08 87.36 2487.68 2487.68 0 0 0 591.36 177.92c145.28 18.88 213.76 15.36 227.52-30.4 16.96-56-41.28-125.76-136.96-163.2zM840 864h-576a48 48 0 1 0 0 96h576a48 48 0 0 0 0-96z" fill="#6297e7" p-id="4497"></path></svg>