<svg t="1619921040905" class="icon" viewBox="0 0 1024 1024" version="1.1" xmlns="http://www.w3.org/2000/svg" p-id="1473" width="32" height="32"><path d="M1022 513.2C1022 795.6 793.6 1024 511.2 1024S0.4 795.6 0.4 513.2C0.4 297.6 135.2 113 325.4 37.8 382 15.2 446 2.4 511.2 2.4s129.2 12.8 185.8 35.4C887.2 113 1022 297.6 1022 513.2z m-706.6-106.4c0 86.6 44 160.4 107.8 197.2 27 15.6 56.8 24.2 88 24.2s59.6-8.6 85.2-22.8c65.2-35.4 110.6-110.6 110.6-198.6 0-122-88-221.4-195.8-221.4s-195.8 99.4-195.8 221.4z m197.2 584.6c149 0 282.4-68.2 370.4-176-10-85.2-92.2-157.4-210-193-44 39.8-100.8 63.8-161.8 63.8-62.4 0-120.6-25.6-164.6-66.6-113.6 32.6-197.2 99.4-215.6 177.4 85 117.8 225.6 194.4 381.6 194.4z" fill="" p-id="1474"></path></svg>