<svg t="1619858794646"  viewBox="0 0 1024 1024" version="1.1" xmlns="http://www.w3.org/2000/svg" p-id="1282" width="200" height="200">
                                        <path d="M789.597 187.354h-77.042c-7.168 0-13.018-5.85-13.018-13.019v-34.277c0-13.43-10.547-24.884-24.06-25.214-14.008-0.412-25.379 10.794-25.379 24.72v34.854c0 7.168-5.85 13.018-13.019 13.018H389.475c-7.169 0-13.019-5.85-13.019-13.018v-34.36c0-13.43-10.547-24.884-24.06-25.214-14.007-0.412-25.378 10.794-25.378 24.72v34.854c0 7.168-5.85 13.018-13.02 13.018h-79.595c-62.87-0.082-113.79 50.84-113.79 113.709v494.22c0 62.87 50.92 113.79 113.79 113.79h555.112c62.869 0 113.79-50.92 113.79-113.79v-494.22c0.083-62.87-50.839-113.791-113.708-113.791z m-619.546 113.79c0-35.595 28.839-64.352 64.352-64.352h79.596c7.168 0 13.019 5.85 13.019 13.02v34.359c0 13.43 10.547 24.884 24.06 25.214 14.007 0.412 25.378-10.794 25.378-24.72v-34.854c0-7.168 5.85-13.019 13.019-13.019h247.604c7.169 0 13.02 5.85 13.02 13.02v34.359c0 13.43 10.546 24.884 24.06 25.214 14.007 0.412 25.378-10.794 25.378-24.72v-34.854c0-7.168 5.85-13.019 13.018-13.019h77.042c35.596 0 64.352 28.84 64.352 64.353v37.408a16.95 16.95 0 0 1-16.973 16.974H187.024a16.95 16.95 0 0 1-16.973-16.974v-37.408z m683.898 494.303c0 35.596-28.839 64.353-64.352 64.353H234.403c-35.513 0-64.352-28.84-64.352-64.353V421.94a16.95 16.95 0 0 1 16.973-16.974h650.034a16.95 16.95 0 0 1 16.974 16.974l-0.083 373.507z" p-id="1283"></path>
                                        <path d="M288.126 573.057h54.135c13.596 0 24.72-11.042 24.72-24.72 0-13.595-11.042-24.719-24.72-24.719h-54.135c-13.595 0-24.72 11.041-24.72 24.72s11.042 24.719 24.72 24.719z m196.848 0h54.135c13.595 0 24.719-11.042 24.719-24.72 0-13.595-11.041-24.719-24.72-24.719h-54.134c-13.596 0-24.72 11.041-24.72 24.72 0.083 13.677 11.124 24.719 24.72 24.719z m196.93 0h54.135c13.595 0 24.719-11.042 24.719-24.72 0-13.595-11.041-24.719-24.72-24.719h-54.134c-13.596 0-24.72 11.041-24.72 24.72s11.042 24.719 24.72 24.719zM347.205 691.709H293.07c-13.596 0-24.72 11.041-24.72 24.72 0 13.595 11.042 24.718 24.72 24.718h54.135c13.596 0 24.72-11.04 24.72-24.719s-11.042-24.72-24.72-24.72z m196.93 0H490c-13.596 0-24.72 11.041-24.72 24.72 0 13.595 11.042 24.718 24.72 24.718h54.135c13.596 0 24.72-11.04 24.72-24.719-0.083-13.678-11.124-24.72-24.72-24.72z m196.848 0h-54.136c-13.595 0-24.719 11.041-24.719 24.72 0 13.595 11.041 24.718 24.72 24.718h54.135c13.595 0 24.719-11.04 24.719-24.719s-11.041-24.72-24.72-24.72z" fill="#6297e7" p-id="1284"></path>
                                    </svg>