<svg t="1619968074908" class="icon" viewBox="0 0 1024 1024" version="1.1" xmlns="http://www.w3.org/2000/svg" p-id="7187" width="32" height="32"><path d="M512 1024A515.413333 515.413333 0 0 1 0 512 515.413333 515.413333 0 0 1 512 0 515.413333 515.413333 0 0 1 1024 512 515.413333 515.413333 0 0 1 512 1024z m0-887.466667A378.88 378.88 0 0 0 136.533333 512 378.88 378.88 0 0 0 512 887.466667 378.88 378.88 0 0 0 887.466667 512 378.88 378.88 0 0 0 512 136.533333z" p-id="7188" fill="#bfbfbf"></path><path d="M778.24 566.613333H443.733333v-341.333333h136.533334v204.8h197.973333v136.533333z" p-id="7189" fill="#bfbfbf"></path></svg>