<svg t="1619859935863"  viewBox="0 0 1024 1024" version="1.1" xmlns="http://www.w3.org/2000/svg" p-id="9483" width="200" height="200"><path d="M512 1024A512 512 0 1 1 512 0a512 512 0 0 1 0 1024z m0-85.312a426.688 426.688 0 1 0 0-853.376 426.688 426.688 0 0 0 0 853.376zM387.392 406.272L271.808 512.384l-58.496-58.432 259.2-240.64 0.064 85.44h0.448v512h-85.632v-404.48zM641.6 618.56l115.072-104.832 52.928 63.36L556.48 810.88l-0.512-98.496V213.44H641.6v405.12z" fill="#3843dd" p-id="9484"></path> </svg>