<svg t="1619936769030" class="icon" viewBox="0 0 1024 1024" version="1.1" xmlns="http://www.w3.org/2000/svg" p-id="6874" width="32" height="32"><path d="M954.688 326.375c-24.094-57-58.688-108.281-102.657-152.25-43.969-43.969-95.156-78.469-152.25-102.656-58.968-24.938-121.687-37.594-186.375-37.594S386.094 46.531 327.031 71.563c-57 24.093-108.281 58.687-152.25 102.656-43.969 43.875-78.469 95.156-102.656 152.156-24.938 59.063-37.594 121.781-37.594 186.375 0 64.688 12.657 127.406 37.688 186.469 24.094 57 58.687 108.281 102.656 152.25 43.969 43.968 95.156 78.468 152.25 102.656 59.063 24.938 121.781 37.688 186.469 37.688S641 979.155 700.062 954.125c57-24.094 108.282-58.688 152.25-102.656 43.97-43.969 78.47-95.157 102.657-152.25 24.937-59.063 37.687-121.782 37.687-186.469-0.281-64.594-12.937-127.313-37.968-186.375zM513.406 954.219c-243.375 0-441.375-198-441.375-441.375s198-441.469 441.375-441.469 441.375 198 441.375 441.375-197.906 441.469-441.375 441.469z" fill="#515151" p-id="6875"></path><path d="M627 125H400.1c-54.9 0-102.5 25.3-102.5 83.9v618.5c0 54.9 44 97.5 102.5 97.5h227c58.6 0 102.4-47.6 102.4-106.1V203.9c0-54.9-44-78.9-102.5-78.9z m-106.5 13c3.8 0 6.9 3.2 6.9 6.9s-3.2 6.9-6.9 6.9c-3.9 0-6.9-3.2-6.9-6.9 0-3.8 3.1-6.9 6.9-6.9z m-35.3 37.2c0-4 3.3-7.3 7.3-7.3h59.7c4 0 7.3 3.3 7.3 7.3v0.6c0 4-3.3 7.3-7.3 7.3h-59.7c-4 0-7.3-3.3-7.3-7.3v-0.6z m-22.5-6.5c3.9 0 6.9 3.2 6.9 6.9 0 3.9-3.1 6.9-6.9 6.9s-6.9-3.2-6.9-6.9c-0.1-3.8 3.1-6.9 6.9-6.9z m50.9 730.1c-19 0-34.4-15.5-34.4-34.4 0-19 15.5-34.4 34.4-34.4 19 0 34.4 15.5 34.4 34.4 0.1 18.9-15.4 34.4-34.4 34.4z m180.5-101.6c0 5.5-4.6 10.1-10.2 10.1H343.2c-5.6 0-10.2-4.6-10.2-10.2V218.4c0-5.6 4.6-10.2 10.2-10.2H684c5.6 0 10.2 4.6 10.2 10.2v578.8z" fill="#515151" p-id="6876"></path></svg>