<svg t="1619926144009" class="icon" viewBox="0 0 1024 1024" version="1.1" xmlns="http://www.w3.org/2000/svg" p-id="3838" width="128" height="128"><path d="M80.009 485.786c0 194.97 156.194 353.894 348.433 353.894 137.08 0 254.498-80.282 311.842-196.062l-64.444-2.184c-50.79 67.72-113.596 134.895-257.775 134.895-152.917 0-277.436-135.442-277.436-290.543 0-135.988 96.666-250.13 223.369-275.798l-0.546-71.543c-161.11 31.13-283.443 174.762-283.443 347.34" p-id="3839"></path><path d="M886.647 282.624l-144.179 84.65-211.9-70.45c-24.575-6.554-26.214-8.739-40.96 0.546l-64.443 37.683c-20.207 11.469-8.738 17.476 30.583 47.513l114.688 86.836L342.7 604.297c24.576-0.547 174.762-14.746 205.892-33.315L925.423 348.16c18.022-10.377 24.03-33.86 13.653-51.883-7.1-11.468-19.66-19.114-32.768-19.114-6.553 0-13.653 2.184-19.66 5.461" p-id="3840"></path><path d="M293.547 506.539l-34.953 20.753 83.559 60.074 110.865-65.536-89.02-27.852c-9.83-3.277-16.93-5.462-24.03-5.462-13.107 0-24.576 6.008-46.421 18.023" p-id="3841"></path><path d="M258.594 488.516h194.424v98.85H258.594z" fill="#ffffff" p-id="3842"></path></svg>