<svg t="1619936293054" class="icon" viewBox="0 0 1024 1024" version="1.1" xmlns="http://www.w3.org/2000/svg" p-id="4699" width="32" height="32"><path d="M1000.342857 877.371429H24.228571c-13.257143 0-24-10.742857-24-24V170.285714c0-13.257143 10.742857-24 24-24h976.114286c13.257143 0 24 10.742857 24 24v49.142857h-45.714286v-27.428571H45.942857v639.771429h932.685714V292.571429h45.714286v560.8c0 13.257143-10.742857 24-24 24z" p-id="4700" fill="#707070"></path><path d="M324.8 534.971429c-66.514286 0-120.571429-54.057143-120.571429-120.571429S258.285714 293.714286 324.8 293.714286s120.571429 54.057143 120.571429 120.571428-54.057143 120.685714-120.571429 120.685715z m0-195.542858c-41.257143 0-74.857143 33.6-74.857143 74.857143s33.6 74.857143 74.857143 74.857143 74.857143-33.6 74.857143-74.857143-33.6-74.857143-74.857143-74.857143z" p-id="4701" fill="#707070"></path><path d="M480.114286 730.285714h-310.857143c-12.8 0-23.2-10.4-23.2-23.2 0-52.914286 15.314286-106.057143 42.171428-145.828571 31.542857-46.742857 76.914286-72.457143 127.885715-72.457143 12.571429 0 22.857143 10.285714 22.857143 22.857143s-10.285714 22.857143-22.857143 22.857143c-45.142857 0-73.828571 28.457143-89.942857 52.342857-18.057143 26.857143-29.828571 61.485714-33.257143 97.714286h263.542857c-5.142857-50.857143-27.085714-98.4-58.857143-125.257143-9.6-8.114286-10.857143-22.514286-2.742857-32.228572 8.114286-9.6 22.514286-10.857143 32.228571-2.742857 47.085714 39.657143 76.228571 109.714286 76.228572 182.742857 0 12.8-10.4 23.2-23.2 23.2zM585.257143 342.628571h292.571428v45.714286h-292.571428zM585.257143 488.228571h292.571428v45.714286h-292.571428zM585.257143 635.657143h201.142857v45.714286h-201.142857z" p-id="4702" fill="#707070"></path></svg>