<svg t="1619860250808"  viewBox="0 0 1024 1024" version="1.1" xmlns="http://www.w3.org/2000/svg" p-id="12162" width="200" height="200"><path d="M810.56128 659.36512v-3.53152l-1.07648-3.53152v-0.5504a16.0448 16.0448 0 0 0-2.176-4.864l-1.35168-2.73024a14.24768 14.24768 0 0 0-2.432-4.3328l-0.55168-1.07648-1.10208-1.35296-2.432-2.176-1.37728-1.35296-0.52608-0.576-137.80352-137.84576a38.27456 38.27456 0 0 0-53.984 54.272l74.592 74.36032H460.31488a38.272 38.272 0 0 0 0 76.544h220.0256l-74.5984 74.32832a38.46144 38.46144 0 0 0 54.51008 54.272l139.19232-140.00256 1.62688-1.65248 0.80128-0.52608 1.10208-0.5504 0.55168-1.60384a18.57664 18.57664 0 0 0 2.432-4.352l0.80128-1.62816 0.5504-1.07648a14.0352 14.0352 0 0 0 2.176-4.88448v-0.5504l1.07648-3.25632v-3.26144l0.55168-2.45376v-2.15424l-0.55168-1.90336zM418.30016 474.03136l-74.61632-74.08384h220.01792c20.608 0 37.95968-17.3568 37.95968-38.54464a38.43072 38.43072 0 0 0-37.95968-37.96864h-220.288l74.34112-74.35904c15.19872-15.20256 15.19872-39.07072 0.55168-53.72288a38.17216 38.17216 0 0 0-54.0096-0.5504L226.19648 332.65024l-0.256 0.55168-1.35168 1.62816-1.65248 1.35168-0.52608 0.80128-1.35168 1.07776-0.576 0.576a25.14944 25.14944 0 0 0-2.432 4.608l-1.60256 2.97984-0.576 1.07776-1.32608 3.80672v0.5504l-1.10208 3.25632v3.25632l-0.52608 2.70464v1.62816l0.52608 2.15296v3.808l1.10208 2.72896v1.07776l1.32608 3.25504 0.576 1.62816 1.60256 2.70464a13.44 13.44 0 0 0 2.432 4.3328l0.576 1.12768 1.35168 1.07648 0.52608 0.52608 1.65248 1.62816 139.16672 140.032a39.32672 39.32672 0 0 0 54.53568 0c14.64704-15.47904 14.64704-39.6224 0-54.54848z m93.59232-458.87872c-273.74848 0-496.74624 223.07584-496.74624 496.86784 0 273.51936 222.99776 496.84736 496.75008 496.84736 273.70112 0 496.97536-223.328 496.97536-496.84736 0-273.792-223.27424-496.87168-496.97536-496.87168z m0 917.76c-231.6864 0-420.50688-189.44-420.50688-420.88448 0.00384-232.02304 188.82688-420.33792 420.50688-420.33792 231.91168 0 420.736 188.31488 420.736 420.33408 0 231.4432-188.8192 420.88448-420.736 420.88448z" fill="#3843dd" p-id="12163"></path></svg>