<svg t="1619859152683" class='stroke-2' viewBox="0 0 1024 1024" version="1.1" xmlns="http://www.w3.org/2000/svg" p-id="2893" width="200" height="200"><path d="M512 977.454545c-162.245818 0-310.225455-82.420364-395.834182-220.462545-4.410182-7.098182-4.666182-16.023273-0.674909-23.377455 3.991273-7.342545 11.613091-11.985455 19.979636-12.16 335.837091-6.830545 553.309091-266.402909 617.809455-354.932364-33.966545-3.549091-86.213818-3.735273-123.543273 20.573091-8.052364 6.795636-18.816 16.465455-30.72 27.136-28.334545 25.425455-60.427636 54.237091-82.664727 69.073455-5.224727 3.479273-11.636364 4.701091-17.768727 3.397818-5.294545-1.128727-13.184-1.896727-22.318545-2.769455-43.205818-4.177455-114.432-11.066182-176.465455-76.660364l-60.916364 0c26.775273 39.156364 74.402909 101.620364 126.336 136.168727 5.864727 3.898182 9.646545 10.251636 10.286545 17.256727 0.64 7.028364-1.931636 13.940364-7.005091 18.839273-93.242182 90.158545-217.844364 95.255273-223.104 95.418182-8.797091 0.360727-17.093818-4.468364-21.282909-12.276364L49.303273 522.984727C47.499636 519.610182 46.545455 515.84 46.545455 512 46.545455 255.348364 255.348364 46.545455 512 46.545455c106.903273 0 211.304727 37.143273 293.992727 104.576 9.960727 8.122182 11.450182 22.784 3.328 32.744727-8.122182 9.949091-22.784 11.438545-32.733091 3.328C702.173091 126.510545 608.209455 93.090909 512 93.090909 282.938182 93.090909 96.244364 277.899636 93.125818 506.228364l64.733091 120.901818c29.021091-3.595636 97.931636-16.686545 157.335273-62.882909-76.811636-62.580364-136.343273-163.828364-139.089455-168.529455-4.200727-7.202909-4.224-16.093091-0.081455-23.307636C180.189091 365.184 187.880727 360.727273 196.212364 360.727273l113.873455 0c6.725818 0 13.125818 2.909091 17.547636 7.982545 51.479273 59.066182 112.628364 64.977455 153.099636 68.887273 6.167273 0.593455 11.845818 1.140364 17.070545 1.826909 19.584-14.487273 47.325091-39.377455 70.144-59.845818 12.846545-11.543273 24.448-21.922909 32.919273-29.021091 0.64-0.535273 1.303273-1.035636 2.001455-1.501091 76.672-51.211636 191.150545-23.400727 196.002909-22.178909 7.179636 1.792 13.079273 6.900364 15.883636 13.754182s2.187636 14.626909-1.675636 20.957091c-9.576727 15.697455-232.122182 372.608-634.368 404.317091C257.733818 869.922909 379.589818 930.909091 512 930.909091c230.993455 0 418.909091-187.915636 418.909091-418.909091 0-25.960727-2.385455-51.933091-7.086545-77.195636-2.362182-12.625455 5.981091-24.785455 18.618182-27.147636 12.660364-2.373818 24.785455 5.981091 27.136 18.618182C974.801455 454.341818 977.454545 483.188364 977.454545 512 977.454545 768.651636 768.651636 977.454545 512 977.454545z" p-id="2894" fill="#6297e7" ></path></svg>